<svg xmlns="http://www.w3.org/2000/svg" xmlns:xlink="http://www.w3.org/1999/xlink" width="500" zoomAndPan="magnify" viewBox="0 0 375 374.999991" height="500" preserveAspectRatio="xMidYMid meet" version="1.0"><defs><clipPath id="6bcbbfe8bf"><path d="M 8.960938 3.804688 L 365.753906 3.804688 L 365.753906 371.304688 L 8.960938 371.304688 Z M 8.960938 3.804688 " clip-rule="nonzero"/></clipPath><clipPath id="b4499659d0"><path d="M 81.648438 3.804688 L 365.753906 3.804688 L 365.753906 348.132812 L 81.648438 348.132812 Z M 81.648438 3.804688 " clip-rule="nonzero"/></clipPath></defs><g clip-path="url(#6bcbbfe8bf)"><path fill="#faad4f" d="M 202.625 6.398438 C 226.554688 4.957031 242.863281 -2.09375 264.238281 15.65625 C 285.617188 33.410156 295.921875 46.664062 309.597656 53.683594 C 323.269531 60.699219 360.039062 108.214844 363.402344 148.578125 C 366.769531 188.941406 366.699219 222.121094 362.027344 231.246094 C 357.355469 240.371094 354.171875 248.566406 354.621094 257.605469 C 355.066406 266.648438 337.683594 300.257812 319.222656 313.828125 C 307.675781 322.316406 285.734375 336.875 267.292969 348.082031 C 256.25 354.796875 246.46875 360.308594 240.921875 362.605469 C 226.105469 368.726562 202.257812 375.296875 188.589844 368.277344 C 174.917969 361.261719 142.636719 349.265625 142.636719 349.265625 C 142.636719 349.265625 126.910156 345.601562 114.445312 338.863281 C 101.984375 332.128906 79.296875 317.265625 69.902344 313.796875 C 60.507812 310.328125 24.828125 274.558594 22.558594 245.941406 C 20.285156 217.324219 11.421875 181.425781 9.117188 169.398438 C 6.8125 157.367188 30.761719 101.027344 40.191406 87.90625 C 47.015625 78.414062 65.78125 62.023438 81.710938 51.472656 C 87.800781 47.425781 93.472656 44.246094 97.910156 42.632812 C 113.933594 36.792969 110.96875 30.355469 123.925781 21.246094 C 136.886719 12.140625 178.695312 7.84375 202.625 6.398438 " fill-opacity="1" fill-rule="nonzero"/></g><g clip-path="url(#b4499659d0)"><path fill="#e07f41" d="M 202.625 6.398438 C 226.554688 4.957031 242.863281 -2.09375 264.238281 15.65625 C 285.617188 33.410156 295.921875 46.664062 309.597656 53.683594 C 323.269531 60.699219 360.039062 108.214844 363.402344 148.578125 C 366.769531 188.941406 366.699219 222.121094 362.027344 231.246094 C 357.355469 240.371094 354.171875 248.566406 354.621094 257.605469 C 355.066406 266.648438 337.683594 300.257812 319.222656 313.828125 C 307.675781 322.316406 285.734375 336.875 267.292969 348.082031 C 275.503906 337.179688 286.234375 322.769531 295.164062 310.214844 C 303.484375 298.511719 305.34375 293.417969 312.253906 283.480469 C 327.769531 261.167969 335.222656 257.902344 343.144531 246.632812 C 364.050781 216.882812 365.132812 164.191406 342.613281 139.261719 C 334.683594 130.480469 326.003906 126.890625 313.03125 110.035156 C 308.324219 103.921875 304.867188 97.597656 298.21875 86.140625 C 283.652344 61.039062 285.722656 49.394531 253.34375 40.566406 C 220.960938 31.742188 221.046875 36.867188 192.742188 37.929688 C 164.4375 38.992188 161.203125 25.46875 140.421875 35.308594 C 119.644531 45.148438 106.964844 53.042969 91.886719 52.078125 C 89.101562 51.898438 85.578125 51.722656 81.710938 51.472656 C 87.800781 47.425781 93.472656 44.246094 97.910156 42.632812 C 113.933594 36.792969 110.96875 30.355469 123.925781 21.246094 C 136.886719 12.140625 178.695312 7.84375 202.625 6.398438 " fill-opacity="1" fill-rule="nonzero"/></g><path fill="#e07f41" d="M 220.410156 308.242188 C 220.410156 308.242188 240.992188 304.742188 243.710938 295.800781 C 246.425781 286.855469 246.078125 274.648438 246.078125 274.648438 C 246.078125 274.648438 234.394531 297.457031 230.667969 299.78125 C 226.9375 302.101562 220.410156 308.242188 220.410156 308.242188 " fill-opacity="1" fill-rule="nonzero"/><path fill="#e07f41" d="M 131.382812 138.40625 C 132.605469 134.792969 135.628906 127.804688 142.667969 123.511719 C 150.402344 118.792969 161.738281 118.089844 163.667969 120.976562 C 163.757812 121.109375 163.988281 121.417969 163.832031 121.550781 C 163.359375 121.945312 155.316406 113.015625 144.867188 116.773438 C 133.179688 120.980469 123.464844 139.140625 123.464844 139.140625 L 131.382812 138.40625 " fill-opacity="1" fill-rule="nonzero"/><path fill="#e07f41" d="M 48.039062 150.4375 C 48.039062 150.4375 40.855469 153.746094 39.546875 169.832031 C 38.234375 185.917969 42.464844 188.8125 35.953125 195.679688 C 35.953125 195.679688 25.054688 180.375 29.605469 173.441406 C 34.152344 166.507812 28.394531 162.386719 34.539062 154.71875 C 40.683594 147.050781 45.46875 144.847656 52.652344 141.539062 C 59.832031 138.234375 48.039062 150.4375 48.039062 150.4375 " fill-opacity="1" fill-rule="nonzero"/><path fill="#e07f41" d="M 145.175781 255.976562 C 145.175781 255.976562 123.609375 248.609375 122.617188 236.308594 C 121.621094 224.007812 102.800781 221.496094 112.542969 222.730469 C 125.226562 224.34375 123.148438 239.785156 127.757812 240.859375 C 132.363281 241.929688 145.175781 255.976562 145.175781 255.976562 " fill-opacity="1" fill-rule="nonzero"/><path fill="#e07f41" d="M 277.953125 211.644531 C 277.953125 211.644531 283.46875 198.886719 278.265625 193.84375 C 273.0625 188.796875 272.699219 184.882812 273.359375 179.292969 C 274.023438 173.703125 272.453125 169.503906 272.453125 169.503906 C 272.453125 169.503906 265.09375 170.980469 267.3125 177.882812 C 269.53125 184.785156 274.652344 184.703125 273.976562 198.585938 C 273.296875 212.472656 277.953125 211.644531 277.953125 211.644531 " fill-opacity="1" fill-rule="nonzero"/><path fill="#e07f41" d="M 232.976562 76.035156 C 240.84375 85.414062 212.890625 63.695312 204.042969 66.101562 C 195.191406 68.503906 185.132812 70.628906 185.132812 70.628906 L 177.128906 69.398438 C 177.128906 69.398438 184.304688 65.964844 190.734375 62.996094 C 197.164062 60.027344 204.140625 62.929688 209.261719 62.847656 C 214.382812 62.765625 228.980469 71.273438 232.976562 76.035156 " fill-opacity="1" fill-rule="nonzero"/><path fill="#e07f41" d="M 131.800781 321.570312 C 134.285156 323.535156 144.222656 331.398438 149.484375 333.386719 C 151.332031 334.082031 153.527344 334.097656 155.71875 333.945312 C 159.765625 333.660156 163.796875 332.804688 165.585938 334.621094 C 168.339844 337.421875 167.84375 330.191406 165.335938 331.003906 C 162.828125 331.820312 150.34375 330.332031 140.945312 324.144531 C 131.550781 317.953125 131.800781 321.570312 131.800781 321.570312 " fill-opacity="1" fill-rule="nonzero"/><path fill="#ffce6f" d="M 133.214844 288.339844 C 133.214844 288.339844 146.605469 296.566406 152.289062 294.0625 C 157.972656 291.558594 162.910156 289.515625 166.820312 289.152344 C 170.734375 288.789062 172.226562 287.859375 172.226562 287.859375 C 172.226562 287.859375 161.984375 288.023438 157.328125 288.851562 C 152.667969 289.683594 152.105469 292.105469 148.011719 290.511719 C 143.921875 288.917969 133.214844 288.339844 133.214844 288.339844 " fill-opacity="1" fill-rule="nonzero"/><path fill="#ffce6f" d="M 72 173.203125 C 72.300781 168.480469 71.914062 168.078125 75.28125 161.839844 C 78.644531 155.601562 87.773438 151.984375 85.835938 143.875 C 83.898438 135.761719 87.625 133.4375 87.625 133.4375 C 87.625 133.4375 94.121094 143.890625 90.574219 148.171875 C 87.027344 152.449219 80.035156 157.84375 77.601562 165.574219 C 75.164062 173.304688 71.519531 180.753906 72 173.203125 " fill-opacity="1" fill-rule="nonzero"/><path fill="#ffce6f" d="M 105.589844 89.109375 C 105.589844 89.109375 106.816406 81.097656 113.527344 76.914062 C 120.238281 72.734375 127.679688 76.386719 134.671875 70.992188 C 141.664062 65.601562 146.421875 61.605469 146.421875 61.605469 C 146.421875 61.605469 138.203125 75.007812 135.78125 74.445312 C 133.363281 73.878906 119.210938 74.410156 117.15625 77.761719 C 115.101562 81.113281 105.589844 89.109375 105.589844 89.109375 " fill-opacity="1" fill-rule="nonzero"/><path fill="#ffce6f" d="M 198.433594 256.820312 C 198.433594 256.820312 207.519531 254.042969 210.488281 246.246094 C 213.457031 238.453125 214.570312 237.09375 215.746094 230.101562 C 215.746094 230.101562 202.144531 256.453125 198.433594 256.820312 " fill-opacity="1" fill-rule="nonzero"/><path fill="#ffce6f" d="M 291.160156 171.3125 C 291.160156 171.3125 294.242188 166.289062 288.675781 157.328125 C 283.105469 148.371094 272.597656 141.449219 272.597656 141.449219 C 272.597656 141.449219 290.894531 164.230469 291.160156 171.3125 " fill-opacity="1" fill-rule="nonzero"/><path fill="#361413" d="M 73.390625 268.648438 C 82.863281 262.746094 99.191406 261.894531 102.707031 274.203125 C 105.660156 284.550781 108.324219 297.558594 98.839844 300.804688 C 98.484375 300.933594 98.117188 301.039062 97.71875 301.128906 C 86.867188 303.726562 78.023438 302.730469 72.132812 293.25 C 66.613281 284.375 64.230469 275.730469 71.71875 269.820312 C 72.222656 269.414062 72.785156 269.023438 73.390625 268.648438 " fill-opacity="1" fill-rule="nonzero"/><path fill="#5e201c" d="M 71.71875 269.820312 C 81.332031 265.015625 95.707031 265.070312 98.976562 276.527344 C 101.449219 285.179688 103.71875 295.703125 98.839844 300.804688 C 98.484375 300.933594 98.117188 301.039062 97.71875 301.128906 C 86.867188 303.726562 78.023438 302.730469 72.132812 293.25 C 66.613281 284.375 64.230469 275.730469 71.71875 269.820312 " fill-opacity="1" fill-rule="nonzero"/><path fill="#c26548" d="M 95.96875 294.65625 C 95.96875 294.65625 95.03125 301.527344 86.640625 298.457031 C 78.25 295.382812 77.3125 288.863281 77.3125 288.863281 C 77.3125 288.863281 84.917969 299.09375 95.96875 294.65625 " fill-opacity="1" fill-rule="nonzero"/><path fill="#361413" d="M 175.027344 132.355469 C 180.917969 141.835938 181.769531 158.183594 169.472656 161.703125 C 159.136719 164.660156 146.148438 167.324219 142.902344 157.832031 C 142.777344 157.476562 142.671875 157.105469 142.578125 156.707031 C 139.984375 145.84375 140.980469 136.992188 150.449219 131.09375 C 159.316406 125.570312 167.949219 123.183594 173.851562 130.683594 C 174.257812 131.1875 174.648438 131.75 175.027344 132.355469 " fill-opacity="1" fill-rule="nonzero"/><path fill="#5e201c" d="M 173.851562 130.683594 C 178.652344 140.304688 178.59375 154.691406 167.152344 157.96875 C 158.511719 160.441406 147.996094 162.714844 142.902344 157.832031 C 142.777344 157.476562 142.671875 157.105469 142.578125 156.707031 C 139.984375 145.84375 140.980469 136.992188 150.449219 131.09375 C 159.316406 125.570312 167.949219 123.183594 173.851562 130.683594 " fill-opacity="1" fill-rule="nonzero"/><path fill="#c26548" d="M 149.046875 154.957031 C 149.046875 154.957031 142.179688 154.019531 145.25 145.621094 C 148.320312 137.222656 154.832031 136.277344 154.832031 136.277344 C 154.832031 136.277344 144.613281 143.894531 149.046875 154.957031 " fill-opacity="1" fill-rule="nonzero"/><path fill="#361413" d="M 224.398438 319.417969 C 230.289062 328.898438 231.140625 345.25 218.84375 348.765625 C 208.507812 351.726562 195.519531 354.390625 192.277344 344.894531 C 192.148438 344.539062 192.042969 344.171875 191.949219 343.773438 C 189.355469 332.910156 190.351562 324.054688 199.820312 318.15625 C 208.6875 312.632812 217.324219 310.25 223.222656 317.746094 C 223.628906 318.25 224.019531 318.8125 224.398438 319.417969 " fill-opacity="1" fill-rule="nonzero"/><path fill="#5e201c" d="M 223.222656 317.746094 C 228.027344 327.371094 227.96875 341.757812 216.527344 345.03125 C 207.882812 347.507812 197.371094 349.777344 192.277344 344.894531 C 192.148438 344.539062 192.042969 344.171875 191.949219 343.773438 C 189.355469 332.910156 190.351562 324.054688 199.820312 318.15625 C 208.6875 312.632812 217.324219 310.25 223.222656 317.746094 " fill-opacity="1" fill-rule="nonzero"/><path fill="#c26548" d="M 198.417969 342.019531 C 198.417969 342.019531 191.554688 341.082031 194.621094 332.683594 C 197.691406 324.285156 204.203125 323.34375 204.203125 323.34375 C 204.203125 323.34375 193.984375 330.957031 198.417969 342.019531 " fill-opacity="1" fill-rule="nonzero"/><path fill="#361413" d="M 267.578125 121.878906 C 256.839844 124.894531 240.921875 121.144531 240.980469 108.34375 C 241.03125 97.582031 242.101562 84.347656 252.117188 83.882812 C 252.492188 83.859375 252.875 83.863281 253.285156 83.886719 C 264.429688 84.425781 272.640625 87.855469 275.652344 98.605469 C 278.476562 108.671875 278.351562 117.636719 269.511719 121.214844 C 268.914062 121.464844 268.265625 121.683594 267.578125 121.878906 " fill-opacity="1" fill-rule="nonzero"/><path fill="#5e201c" d="M 269.511719 121.214844 C 258.941406 123.144531 245.15625 119.070312 245.210938 107.15625 C 245.25 98.160156 246.007812 87.414062 252.117188 83.882812 C 252.492188 83.859375 252.875 83.863281 253.285156 83.886719 C 264.429688 84.425781 272.640625 87.855469 275.652344 98.605469 C 278.476562 108.671875 278.351562 117.636719 269.511719 121.214844 " fill-opacity="1" fill-rule="nonzero"/><path fill="#c26548" d="M 253.15625 90.589844 C 253.15625 90.589844 255.972656 84.253906 263.171875 89.550781 C 270.371094 94.847656 269.457031 101.371094 269.457031 101.371094 C 269.457031 101.371094 265.007812 89.417969 253.15625 90.589844 " fill-opacity="1" fill-rule="nonzero"/><path fill="#361413" d="M 257.808594 249.285156 C 260.335938 238.410156 271.28125 226.25 282.460938 232.464844 C 291.863281 237.691406 302.929688 245 298.515625 254.011719 C 298.355469 254.351562 298.167969 254.6875 297.953125 255.035156 C 292.113281 264.554688 285.160156 270.109375 274.292969 267.574219 C 264.125 265.203125 256.332031 260.78125 257.457031 251.300781 C 257.527344 250.65625 257.648438 249.980469 257.808594 249.285156 " fill-opacity="1" fill-rule="nonzero"/><path fill="#5e201c" d="M 257.457031 251.300781 C 260.859375 241.097656 271.0625 230.960938 281.46875 236.746094 C 289.324219 241.113281 298.363281 246.953125 298.515625 254.011719 C 298.355469 254.351562 298.171875 254.6875 297.953125 255.035156 C 292.113281 264.554688 285.160156 270.109375 274.296875 267.574219 C 264.125 265.203125 256.335938 260.78125 257.457031 251.300781 " fill-opacity="1" fill-rule="nonzero"/><path fill="#c26548" d="M 292.144531 251.695312 C 292.144531 251.695312 296.335938 257.21875 288.234375 260.984375 C 280.132812 264.753906 274.859375 260.808594 274.859375 260.808594 C 274.859375 260.808594 287.464844 262.65625 292.144531 251.695312 " fill-opacity="1" fill-rule="nonzero"/><path fill="#361413" d="M 197.109375 198.558594 C 200.207031 196.867188 201.75 196.019531 203.855469 196.195312 C 207.003906 196.460938 209.992188 198.832031 211.023438 201.804688 C 211.609375 203.492188 211.351562 204.957031 210.832031 207.878906 C 210.066406 212.183594 209.660156 214.488281 207.785156 215.730469 C 207.625 215.835938 207.460938 215.933594 207.289062 216.007812 C 204.945312 217.167969 201.882812 216.140625 198.921875 215.15625 C 196.761719 214.425781 195.257812 213.921875 193.867188 212.492188 C 191.421875 209.964844 190.300781 205.5625 192.015625 202.441406 C 192.125 202.238281 192.25 202.042969 192.386719 201.867188 C 193.269531 200.660156 194.660156 199.898438 197.109375 198.558594 " fill-opacity="1" fill-rule="nonzero"/><path fill="#5e201c" d="M 195.355469 200.152344 C 198.449219 198.457031 199.996094 197.613281 202.101562 197.792969 C 205.25 198.054688 208.234375 200.425781 209.265625 203.394531 C 209.855469 205.089844 209.59375 206.546875 209.074219 209.46875 C 208.523438 212.574219 208.160156 214.636719 207.289062 216.007812 C 204.945312 217.167969 201.882812 216.140625 198.921875 215.15625 C 196.761719 214.425781 195.261719 213.921875 193.867188 212.492188 C 191.421875 209.964844 190.300781 205.558594 192.015625 202.441406 C 192.125 202.238281 192.25 202.039062 192.390625 201.867188 C 193.152344 201.351562 194.121094 200.824219 195.355469 200.152344 " fill-opacity="1" fill-rule="nonzero"/><path fill="#c26548" d="M 196.460938 208.789062 C 196.460938 208.789062 197.953125 213.761719 202.074219 213.066406 C 206.195312 212.367188 207.90625 209.957031 207.90625 209.957031 C 207.90625 209.957031 202.097656 212.246094 196.460938 208.789062 " fill-opacity="1" fill-rule="nonzero"/><path fill="#361413" d="M 250.980469 294.105469 C 254.074219 292.414062 255.617188 291.566406 257.726562 291.742188 C 260.875 292.007812 263.859375 294.378906 264.894531 297.351562 C 265.476562 299.039062 265.21875 300.503906 264.703125 303.425781 C 263.9375 307.730469 263.527344 310.035156 261.652344 311.277344 C 261.496094 311.382812 261.328125 311.480469 261.160156 311.554688 C 258.816406 312.71875 255.75 311.6875 252.789062 310.703125 C 250.632812 309.972656 249.128906 309.472656 247.738281 308.039062 C 245.292969 305.511719 244.171875 301.109375 245.882812 297.992188 C 245.996094 297.785156 246.121094 297.589844 246.257812 297.414062 C 247.136719 296.203125 248.527344 295.445312 250.980469 294.105469 " fill-opacity="1" fill-rule="nonzero"/><path fill="#5e201c" d="M 249.222656 295.699219 C 252.316406 294.003906 253.863281 293.160156 255.972656 293.339844 C 259.121094 293.601562 262.105469 295.972656 263.136719 298.941406 C 263.722656 300.632812 263.464844 302.09375 262.945312 305.015625 C 262.390625 308.121094 262.027344 310.183594 261.160156 311.554688 C 258.816406 312.71875 255.75 311.6875 252.789062 310.703125 C 250.632812 309.972656 249.128906 309.472656 247.738281 308.039062 C 245.292969 305.511719 244.171875 301.109375 245.882812 297.992188 C 245.996094 297.785156 246.121094 297.589844 246.257812 297.414062 C 247.023438 296.898438 247.988281 296.371094 249.222656 295.699219 " fill-opacity="1" fill-rule="nonzero"/><path fill="#c26548" d="M 250.328125 304.339844 C 250.328125 304.339844 251.820312 309.308594 255.941406 308.613281 C 260.0625 307.917969 261.777344 305.503906 261.777344 305.503906 C 261.777344 305.503906 255.964844 307.792969 250.328125 304.339844 " fill-opacity="1" fill-rule="nonzero"/><path fill="#361413" d="M 51.101562 189.359375 C 56.550781 186.390625 59.269531 184.894531 62.980469 185.207031 C 68.523438 185.667969 73.777344 189.84375 75.597656 195.078125 C 76.625 198.050781 76.171875 200.625 75.261719 205.769531 C 73.914062 213.347656 73.195312 217.40625 69.894531 219.59375 C 69.613281 219.78125 69.324219 219.949219 69.023438 220.082031 C 64.894531 222.128906 59.503906 220.316406 54.289062 218.582031 C 50.488281 217.296875 47.84375 216.414062 45.394531 213.890625 C 41.089844 209.441406 39.117188 201.691406 42.132812 196.203125 C 42.328125 195.839844 42.546875 195.492188 42.789062 195.183594 C 44.339844 193.058594 46.785156 191.71875 51.101562 189.359375 " fill-opacity="1" fill-rule="nonzero"/><path fill="#5e201c" d="M 48.015625 192.167969 C 53.457031 189.1875 56.179688 187.699219 59.890625 188.011719 C 65.433594 188.476562 70.6875 192.652344 72.5 197.875 C 73.539062 200.859375 73.078125 203.425781 72.167969 208.566406 C 71.195312 214.039062 70.550781 217.667969 69.023438 220.082031 C 64.894531 222.128906 59.503906 220.316406 54.289062 218.582031 C 50.488281 217.296875 47.84375 216.414062 45.394531 213.890625 C 41.089844 209.441406 39.117188 201.691406 42.132812 196.203125 C 42.328125 195.839844 42.546875 195.492188 42.789062 195.183594 C 44.136719 194.277344 45.839844 193.351562 48.015625 192.167969 " fill-opacity="1" fill-rule="nonzero"/><path fill="#c26548" d="M 49.957031 207.378906 C 49.957031 207.378906 52.582031 216.128906 59.839844 214.902344 C 67.09375 213.675781 70.109375 209.429688 70.109375 209.429688 C 70.109375 209.429688 59.882812 213.457031 49.957031 207.378906 " fill-opacity="1" fill-rule="nonzero"/><path fill="#361413" d="M 298.289062 179.828125 C 301.382812 178.136719 302.925781 177.289062 305.035156 177.464844 C 308.183594 177.730469 311.167969 180.101562 312.203125 183.074219 C 312.785156 184.761719 312.53125 186.226562 312.011719 189.148438 C 311.246094 193.453125 310.835938 195.757812 308.960938 197 C 308.804688 197.105469 308.640625 197.203125 308.46875 197.277344 C 306.125 198.4375 303.0625 197.410156 300.097656 196.425781 C 297.941406 195.695312 296.4375 195.191406 295.046875 193.761719 C 292.601562 191.234375 291.480469 186.832031 293.191406 183.710938 C 293.304688 183.507812 293.429688 183.308594 293.566406 183.136719 C 294.449219 181.925781 295.835938 181.167969 298.289062 179.828125 " fill-opacity="1" fill-rule="nonzero"/><path fill="#5e201c" d="M 296.535156 181.417969 C 299.625 179.726562 301.175781 178.882812 303.28125 179.058594 C 306.429688 179.324219 309.414062 181.695312 310.445312 184.664062 C 311.03125 186.355469 310.773438 187.816406 310.253906 190.738281 C 309.699219 193.84375 309.335938 195.90625 308.46875 197.277344 C 306.125 198.4375 303.0625 197.410156 300.097656 196.425781 C 297.941406 195.695312 296.4375 195.191406 295.046875 193.761719 C 292.601562 191.234375 291.480469 186.832031 293.191406 183.710938 C 293.304688 183.507812 293.429688 183.308594 293.566406 183.132812 C 294.332031 182.621094 295.300781 182.09375 296.535156 181.417969 " fill-opacity="1" fill-rule="nonzero"/><path fill="#c26548" d="M 297.640625 190.058594 C 297.640625 190.058594 299.132812 195.03125 303.25 194.335938 C 307.375 193.636719 309.085938 191.226562 309.085938 191.226562 C 309.085938 191.226562 303.277344 193.515625 297.640625 190.058594 " fill-opacity="1" fill-rule="nonzero"/><path fill="#361413" d="M 191.964844 88.644531 C 195.058594 86.957031 196.605469 86.109375 198.710938 86.285156 C 201.859375 86.550781 204.84375 88.921875 205.878906 91.894531 C 206.464844 93.582031 206.207031 95.046875 205.6875 97.96875 C 204.921875 102.273438 204.515625 104.578125 202.640625 105.820312 C 202.480469 105.929688 202.316406 106.023438 202.144531 106.097656 C 199.800781 107.257812 196.738281 106.230469 193.773438 105.246094 C 191.617188 104.515625 190.113281 104.011719 188.722656 102.582031 C 186.277344 100.054688 185.15625 95.652344 186.871094 92.53125 C 186.980469 92.328125 187.105469 92.128906 187.242188 91.953125 C 188.125 90.746094 189.515625 89.988281 191.964844 88.644531 " fill-opacity="1" fill-rule="nonzero"/><path fill="#5e201c" d="M 190.210938 90.242188 C 193.300781 88.546875 194.847656 87.703125 196.957031 87.882812 C 200.105469 88.144531 203.089844 90.515625 204.121094 93.484375 C 204.710938 95.175781 204.449219 96.636719 203.929688 99.558594 C 203.378906 102.664062 203.011719 104.726562 202.144531 106.097656 C 199.800781 107.261719 196.738281 106.230469 193.777344 105.246094 C 191.617188 104.515625 190.117188 104.015625 188.722656 102.582031 C 186.277344 100.054688 185.15625 95.652344 186.867188 92.53125 C 186.980469 92.328125 187.105469 92.128906 187.242188 91.957031 C 188.007812 91.441406 188.976562 90.914062 190.210938 90.242188 " fill-opacity="1" fill-rule="nonzero"/><path fill="#c26548" d="M 191.316406 98.878906 C 191.316406 98.878906 192.804688 103.851562 196.929688 103.15625 C 201.050781 102.460938 202.761719 100.046875 202.761719 100.046875 C 202.761719 100.046875 196.953125 102.335938 191.316406 98.878906 " fill-opacity="1" fill-rule="nonzero"/><path fill="#361413" d="M 81.679688 70.992188 C 88.5 72.097656 91.910156 72.636719 94.964844 75.445312 C 99.527344 79.636719 101.308594 86.902344 99.34375 92.75 C 98.226562 96.070312 96.070312 98.027344 91.761719 101.933594 C 85.414062 107.679688 82.015625 110.765625 77.621094 110.4375 C 77.246094 110.410156 76.878906 110.359375 76.523438 110.273438 C 71.496094 109.253906 67.984375 103.980469 64.574219 98.890625 C 62.105469 95.167969 60.378906 92.582031 59.941406 88.691406 C 59.183594 81.832031 62.726562 73.664062 69.121094 70.890625 C 69.539062 70.707031 69.96875 70.550781 70.394531 70.441406 C 73.207031 69.628906 76.273438 70.125 81.679688 70.992188 " fill-opacity="1" fill-rule="nonzero"/><path fill="#5e201c" d="M 77.046875 71.355469 C 83.867188 72.445312 87.28125 73 90.332031 75.808594 C 94.894531 80 96.675781 87.265625 94.710938 93.101562 C 93.59375 96.433594 91.441406 98.378906 87.132812 102.28125 C 82.550781 106.433594 79.511719 109.191406 76.523438 110.273438 C 71.496094 109.253906 67.984375 103.980469 64.574219 98.890625 C 62.105469 95.167969 60.378906 92.582031 59.941406 88.691406 C 59.183594 81.832031 62.726562 73.664062 69.121094 70.890625 C 69.539062 70.707031 69.96875 70.550781 70.394531 70.445312 C 72.195312 70.566406 74.324219 70.914062 77.046875 71.355469 " fill-opacity="1" fill-rule="nonzero"/><path fill="#c26548" d="M 68.394531 86.070312 C 68.394531 86.070312 64.742188 95.566406 71.964844 99.441406 C 79.191406 103.316406 84.738281 101.636719 84.738281 101.636719 C 84.738281 101.636719 72.988281 98.199219 68.394531 86.070312 " fill-opacity="1" fill-rule="nonzero"/><path fill="#361413" d="M 113.34375 182.65625 C 116.4375 180.96875 117.984375 180.117188 120.089844 180.296875 C 123.238281 180.558594 126.226562 182.933594 127.257812 185.90625 C 127.84375 187.59375 127.585938 189.058594 127.066406 191.976562 C 126.300781 196.28125 125.894531 198.585938 124.019531 199.828125 C 123.859375 199.9375 123.695312 200.03125 123.523438 200.109375 C 121.179688 201.269531 118.117188 200.242188 115.15625 199.253906 C 112.996094 198.527344 111.496094 198.023438 110.101562 196.589844 C 107.65625 194.0625 106.535156 189.660156 108.246094 186.542969 C 108.359375 186.335938 108.484375 186.140625 108.621094 185.964844 C 109.503906 184.757812 110.890625 183.996094 113.34375 182.65625 " fill-opacity="1" fill-rule="nonzero"/><path fill="#5e201c" d="M 111.589844 184.25 C 114.679688 182.558594 116.230469 181.710938 118.335938 181.890625 C 121.484375 182.152344 124.46875 184.523438 125.5 187.492188 C 126.089844 189.1875 125.828125 190.644531 125.308594 193.566406 C 124.757812 196.675781 124.394531 198.734375 123.523438 200.109375 C 121.179688 201.269531 118.117188 200.242188 115.15625 199.253906 C 112.996094 198.523438 111.496094 198.023438 110.101562 196.589844 C 107.65625 194.0625 106.535156 189.660156 108.25 186.542969 C 108.359375 186.335938 108.484375 186.140625 108.621094 185.964844 C 109.386719 185.449219 110.355469 184.921875 111.589844 184.25 " fill-opacity="1" fill-rule="nonzero"/><path fill="#c26548" d="M 112.695312 192.890625 C 112.695312 192.890625 114.183594 197.863281 118.308594 197.164062 C 122.429688 196.46875 124.140625 194.054688 124.140625 194.054688 C 124.140625 194.054688 118.332031 196.34375 112.695312 192.890625 " fill-opacity="1" fill-rule="nonzero"/><path fill="#361413" d="M 150.894531 73.308594 C 153.992188 71.625 155.535156 70.773438 157.644531 70.949219 C 160.789062 71.214844 163.777344 73.585938 164.808594 76.558594 C 165.394531 78.246094 165.136719 79.710938 164.617188 82.632812 C 163.851562 86.933594 163.445312 89.242188 161.570312 90.484375 C 161.410156 90.589844 161.246094 90.6875 161.078125 90.761719 C 158.730469 91.921875 155.667969 90.894531 152.707031 89.910156 C 150.546875 89.179688 149.046875 88.679688 147.652344 87.246094 C 145.207031 84.71875 144.085938 80.316406 145.800781 77.195312 C 145.914062 76.992188 146.035156 76.796875 146.175781 76.621094 C 147.054688 75.414062 148.445312 74.652344 150.894531 73.308594 " fill-opacity="1" fill-rule="nonzero"/><path fill="#5e201c" d="M 149.140625 74.90625 C 152.234375 73.210938 153.78125 72.367188 155.886719 72.546875 C 159.035156 72.808594 162.023438 75.179688 163.050781 78.148438 C 163.640625 79.839844 163.378906 81.300781 162.859375 84.222656 C 162.308594 87.328125 161.945312 89.390625 161.078125 90.761719 C 158.730469 91.921875 155.667969 90.898438 152.707031 89.910156 C 150.546875 89.179688 149.046875 88.675781 147.652344 87.246094 C 145.207031 84.71875 144.085938 80.316406 145.800781 77.195312 C 145.914062 76.992188 146.035156 76.796875 146.175781 76.621094 C 146.9375 76.105469 147.90625 75.578125 149.140625 74.90625 " fill-opacity="1" fill-rule="nonzero"/><path fill="#c26548" d="M 150.246094 83.546875 C 150.246094 83.546875 151.734375 88.515625 155.859375 87.820312 C 159.980469 87.121094 161.691406 84.714844 161.691406 84.714844 C 161.691406 84.714844 155.882812 87 150.246094 83.546875 " fill-opacity="1" fill-rule="nonzero"/><path fill="#361413" d="M 176.15625 275.394531 C 179.25 273.707031 180.792969 272.855469 182.902344 273.035156 C 186.050781 273.296875 189.035156 275.667969 190.070312 278.644531 C 190.652344 280.332031 190.398438 281.792969 189.878906 284.714844 C 189.113281 289.019531 188.707031 291.324219 186.828125 292.570312 C 186.671875 292.675781 186.507812 292.769531 186.335938 292.847656 C 183.992188 294.007812 180.929688 292.980469 177.964844 291.992188 C 175.808594 291.265625 174.304688 290.761719 172.914062 289.328125 C 170.46875 286.800781 169.347656 282.398438 171.058594 279.28125 C 171.171875 279.074219 171.296875 278.878906 171.433594 278.703125 C 172.316406 277.496094 173.703125 276.734375 176.15625 275.394531 " fill-opacity="1" fill-rule="nonzero"/><path fill="#5e201c" d="M 174.402344 276.988281 C 177.492188 275.296875 179.039062 274.453125 181.148438 274.628906 C 184.296875 274.890625 187.28125 277.261719 188.3125 280.230469 C 188.898438 281.925781 188.640625 283.382812 188.121094 286.304688 C 187.570312 289.414062 187.203125 291.472656 186.335938 292.847656 C 183.992188 294.007812 180.929688 292.980469 177.964844 291.992188 C 175.808594 291.265625 174.304688 290.761719 172.914062 289.328125 C 170.46875 286.800781 169.347656 282.398438 171.058594 279.28125 C 171.171875 279.074219 171.296875 278.878906 171.433594 278.703125 C 172.199219 278.1875 173.164062 277.660156 174.402344 276.988281 " fill-opacity="1" fill-rule="nonzero"/><path fill="#c26548" d="M 175.503906 285.628906 C 175.503906 285.628906 176.996094 290.601562 181.117188 289.902344 C 185.242188 289.207031 186.953125 286.796875 186.953125 286.796875 C 186.953125 286.796875 181.140625 289.082031 175.503906 285.628906 " fill-opacity="1" fill-rule="nonzero"/></svg>